<?xml version="1.0" encoding="utf-8"?>
<!-- Generator: Adobe Illustrator 21.0.0, SVG Export Plug-In . SVG Version: 6.00 Build 0)  -->
<svg version="1.1" id="Capa_1" xmlns="http://www.w3.org/2000/svg" xmlns:xlink="http://www.w3.org/1999/xlink" x="0px" y="0px"
	 viewBox="0 0 512 512" style="enable-background:new 0 0 512 512;" xml:space="preserve">
<style type="text/css">
	.st0{fill:url(#SVGID_1_);}
	.st1{fill:url(#SVGID_2_);}
	.st2{fill:url(#SVGID_3_);}
	.st3{fill:url(#SVGID_4_);}
</style>
<g>
	<linearGradient id="SVGID_1_" gradientUnits="userSpaceOnUse" x1="256.0003" y1="1.007080e-03" x2="256.0003" y2="512">
		<stop  offset="0" style="stop-color:#1188FF"/>
		<stop  offset="1" style="stop-color:#0052A3"/>
	</linearGradient>
	<path class="st0" d="M449.1,388c4.1,0,7.5-3.4,7.5-7.5v-180c0-9-3.5-18.1-9.8-25.8l-55.6-67.4c-2.9-3.5-6.3-6.5-9.9-8.9
		c0.2-2.3,0.4-4.6,0.4-6.9v-84c0-4.1-3.4-7.5-7.5-7.5s-7.5,3.4-7.5,7.5c0,0,0,84.7,0,85.1c-2.1-0.4-4.3-0.6-6.5-0.6h-97
		c-6.8,0-13.5,1.9-19.5,5.4c-0.3,0.1-0.5,0.2-0.8,0.3l-73.1,35.6c-8.1,4.1-14.6,10.9-18.2,19.2c0,0.1-0.1,0.2-0.1,0.3l-30.2,76.7
		c-1.5,3.9,0.4,8.2,4.2,9.7c0.9,0.4,1.8,0.5,2.7,0.5c3,0,5.8-1.8,7-4.8l30.2-76.5c2.3-5.1,6.2-9.2,11.1-11.7l38.6-18.8l-38.6,46.7
		c-5.8,7-8.8,15.9-8.8,25.8v259c0,3,0.3,6,0.7,8.8L91,434.1c-17.5-7.7-25.4-28.3-17.6-45.8c0-0.1,0.1-0.2,0.1-0.2l48.9-121.5
		c1.5-3.8-0.3-8.2-4.2-9.8c-3.8-1.5-8.2,0.3-9.8,4.2L59.6,382.4c-11,25,0.4,54.4,25.3,65.5l90.6,40.2c0.1,0,0.2,0.1,0.3,0.1
		c9.2,14.4,25.1,23.9,43.2,23.9h185c28.5,0,52.5-24,52.5-52.5v-44c0-4.1-3.4-7.5-7.5-7.5s-7.5,3.4-7.5,7.5v44
		c0,20.3-17.2,37.5-37.5,37.5h-185c-20.1,0-36.5-16.8-36.5-37.5v-259c0-6.4,1.8-11.9,5.4-16.2l55.6-67.4c5.2-6.3,12.3-9.9,19.5-9.9
		h97c1.4,0,2.8,0.1,4.2,0.4c-4.7,16-16.3,29.4-32,36.1c-4.1-6.9-11.6-11.5-20.2-11.5c-13,0-23.5,10.5-23.5,23.5s10.5,23.5,23.5,23.5
		c12,0,21.9-9,23.3-20.6c20.2-7.6,35.5-23.8,42.3-43.6c0.7,0.7,1.3,1.3,1.9,2.1l55.6,67.4c4.1,5,6.4,10.8,6.4,16.2v180
		C441.6,384.6,444.9,388,449.1,388L449.1,388z M312.1,164c-4.7,0-8.5-3.8-8.5-8.5s3.8-8.5,8.5-8.5s8.5,3.8,8.5,8.5
		S316.8,164,312.1,164z"/>
	<linearGradient id="SVGID_2_" gradientUnits="userSpaceOnUse" x1="311.0755" y1="256.0003" x2="311.0755" y2="399.0045">
		<stop  offset="0" style="stop-color:#1188FF"/>
		<stop  offset="1" style="stop-color:#0052A3"/>
	</linearGradient>
	<path class="st1" d="M247.1,399c1.9,0,3.8-0.7,5.3-2.2l128-128c2.9-2.9,2.9-7.7,0-10.6c-2.9-2.9-7.7-2.9-10.6,0l-128,128
		C237,390.7,240.7,399.2,247.1,399L247.1,399z"/>
	<linearGradient id="SVGID_3_" gradientUnits="userSpaceOnUse" x1="262.568" y1="255" x2="262.568" y2="320">
		<stop  offset="0" style="stop-color:#1188FF"/>
		<stop  offset="1" style="stop-color:#0052A3"/>
	</linearGradient>
	<path class="st2" d="M263.1,320c17.9,0,32.5-14.6,32.5-32.5S281,255,263.1,255h-1c-17.9,0-32.5,14.6-32.5,32.5s14.6,32.5,32.5,32.5
		H263.1z M244.6,287.5c0-9.6,7.9-17.5,17.5-17.5h1c9.6,0,17.5,7.9,17.5,17.5s-7.9,17.5-17.5,17.5h-1
		C252.4,305,244.6,297.1,244.6,287.5z"/>
	<linearGradient id="SVGID_4_" gradientUnits="userSpaceOnUse" x1="360.568" y1="334" x2="360.568" y2="399">
		<stop  offset="0" style="stop-color:#1188FF"/>
		<stop  offset="1" style="stop-color:#0052A3"/>
	</linearGradient>
	<path class="st3" d="M360.1,399h1c17.9,0,32.5-14.6,32.5-32.5S379,334,361.1,334h-1c-17.9,0-32.5,14.6-32.5,32.5
		S342.1,399,360.1,399z M360.1,349h1c9.6,0,17.5,7.9,17.5,17.5s-7.9,17.5-17.5,17.5h-1c-9.6,0-17.5-7.9-17.5-17.5
		S350.4,349,360.1,349z"/>
</g>
</svg>
